<mxfile host="app.diagrams.net" modified="2023-06-27T20:32:32.516Z" agent="Mozilla/5.0 (Windows NT 10.0; Win64; x64) AppleWebKit/537.36 (KHTML, like Gecko) Chrome/114.0.0.0 Safari/537.36 Edg/114.0.1823.58" etag="Q4IPSKid2lvKGF7W3FQg" version="21.5.0" type="github">
  <diagram name="Page-1" id="e3a06f82-3646-2815-327d-82caf3d4e204">
    <mxGraphModel dx="1791" dy="1006" grid="1" gridSize="10" guides="1" tooltips="1" connect="1" arrows="1" fold="1" page="1" pageScale="1.5" pageWidth="1169" pageHeight="826" background="none" math="0" shadow="0">
      <root>
        <mxCell id="0" style=";html=1;" />
        <mxCell id="1" style=";html=1;" parent="0" />
        <mxCell id="tentwsTDsZKtuL-YGYM0-8" value="" style="shape=link;html=1;rounded=0;fontSize=24;labelBackgroundColor=none;entryX=0.444;entryY=-0.015;entryDx=0;entryDy=0;entryPerimeter=0;exitX=0.5;exitY=1;exitDx=0;exitDy=0;" edge="1" parent="1" source="tentwsTDsZKtuL-YGYM0-7">
          <mxGeometry width="100" relative="1" as="geometry">
            <mxPoint x="880" y="420.50000000000006" as="sourcePoint" />
            <mxPoint x="881" y="498.50000000000006" as="targetPoint" />
          </mxGeometry>
        </mxCell>
        <mxCell id="KqSf9Hwdw_-mJAA5NMdA-5" value="" style="shape=link;html=1;rounded=0;exitX=0.5;exitY=1;exitDx=0;exitDy=0;fontSize=24;labelBackgroundColor=none;" parent="1" source="RgH2JHaKkqkQcPpsvsZi-15" edge="1">
          <mxGeometry width="100" relative="1" as="geometry">
            <mxPoint x="1290" y="460" as="sourcePoint" />
            <mxPoint x="1440" y="500" as="targetPoint" />
          </mxGeometry>
        </mxCell>
        <mxCell id="RgH2JHaKkqkQcPpsvsZi-17" value="" style="shape=link;html=1;rounded=0;exitX=1;exitY=0.5;exitDx=0;exitDy=0;fontSize=24;labelBackgroundColor=none;" parent="1" edge="1">
          <mxGeometry width="100" relative="1" as="geometry">
            <mxPoint x="659" y="500" as="sourcePoint" />
            <mxPoint x="1540" y="500" as="targetPoint" />
          </mxGeometry>
        </mxCell>
        <mxCell id="KqSf9Hwdw_-mJAA5NMdA-9" value="Corporate Network" style="edgeLabel;html=1;align=center;verticalAlign=middle;resizable=0;points=[];fontSize=24;" parent="RgH2JHaKkqkQcPpsvsZi-17" vertex="1" connectable="0">
          <mxGeometry x="-0.1241" y="1" relative="1" as="geometry">
            <mxPoint x="-275" y="1" as="offset" />
          </mxGeometry>
        </mxCell>
        <mxCell id="6a7d8f32e03d9370-62" value="Email Servers" style="text;strokeColor=none;fillColor=none;html=1;fontSize=24;fontStyle=1;verticalAlign=middle;align=center;fontColor=default;labelBackgroundColor=none;" parent="1" vertex="1">
          <mxGeometry x="669" y="30" width="861" height="40" as="geometry" />
        </mxCell>
        <mxCell id="RgH2JHaKkqkQcPpsvsZi-2" value="Internet" style="image;aspect=fixed;perimeter=ellipsePerimeter;html=1;align=center;shadow=0;dashed=0;spacingTop=3;image=img/lib/active_directory/internet_cloud.svg;fontSize=24;fontColor=default;labelBackgroundColor=none;" parent="1" vertex="1">
          <mxGeometry x="270" y="420.5" width="252.38" height="159" as="geometry" />
        </mxCell>
        <mxCell id="RgH2JHaKkqkQcPpsvsZi-4" value="" style="endArrow=none;dashed=1;html=1;dashPattern=1 3;strokeWidth=2;rounded=0;fontSize=24;fontColor=default;labelBackgroundColor=none;" parent="1" edge="1">
          <mxGeometry width="50" height="50" relative="1" as="geometry">
            <mxPoint x="619.1454545454544" y="540" as="sourcePoint" />
            <mxPoint x="620" y="775" as="targetPoint" />
          </mxGeometry>
        </mxCell>
        <mxCell id="RgH2JHaKkqkQcPpsvsZi-15" value="User: tlong@gmail.com&lt;br&gt;Host Machine&lt;br&gt;MUA: Thunderbird" style="image;html=1;image=img/lib/clip_art/computers/Laptop_128x128.png;fontSize=24;labelBackgroundColor=default;" parent="1" vertex="1">
          <mxGeometry x="1400" y="270" width="80" height="100" as="geometry" />
        </mxCell>
        <mxCell id="KqSf9Hwdw_-mJAA5NMdA-3" value="" style="shape=link;html=1;rounded=0;exitX=1;exitY=0.5;exitDx=0;exitDy=0;entryX=0;entryY=0.5;entryDx=0;entryDy=0;fontSize=24;labelBackgroundColor=none;" parent="1" source="RgH2JHaKkqkQcPpsvsZi-2" edge="1">
          <mxGeometry width="100" relative="1" as="geometry">
            <mxPoint x="522" y="500" as="sourcePoint" />
            <mxPoint x="579" y="500" as="targetPoint" />
          </mxGeometry>
        </mxCell>
        <mxCell id="KqSf9Hwdw_-mJAA5NMdA-4" value="" style="endArrow=none;dashed=1;html=1;dashPattern=1 3;strokeWidth=2;rounded=0;fontSize=24;fontColor=default;labelBackgroundColor=none;" parent="1" edge="1">
          <mxGeometry width="50" height="50" relative="1" as="geometry">
            <mxPoint x="620" y="225" as="sourcePoint" />
            <mxPoint x="619.1454545454544" y="460" as="targetPoint" />
          </mxGeometry>
        </mxCell>
        <mxCell id="TxpGBSmb_Rb3wldLJPdr-1" value="" style="image;html=1;image=img/lib/clip_art/networking/Firewall-page1_128x128.png" parent="1" vertex="1">
          <mxGeometry x="579" y="460" width="80" height="80" as="geometry" />
        </mxCell>
        <mxCell id="E2bT5KaukK148jxZRu-1-1" value="" style="ellipse;whiteSpace=wrap;html=1;aspect=fixed;strokeColor=#FF3333;fillColor=none;strokeWidth=7;" parent="1" vertex="1">
          <mxGeometry x="1270" y="30" width="150" height="150" as="geometry" />
        </mxCell>
        <mxCell id="E2bT5KaukK148jxZRu-1-2" value="" style="shape=flexArrow;endArrow=classic;html=1;rounded=0;strokeColor=#FF3333;fillColor=none;strokeWidth=7;fontSize=24;width=30;" parent="1" edge="1">
          <mxGeometry width="50" height="50" relative="1" as="geometry">
            <mxPoint x="1370" y="280" as="sourcePoint" />
            <mxPoint x="1240" y="410" as="targetPoint" />
          </mxGeometry>
        </mxCell>
        <mxCell id="tentwsTDsZKtuL-YGYM0-9" value="SMTP (Outgoing Email)" style="edgeLabel;html=1;align=center;verticalAlign=middle;resizable=0;points=[];fontSize=24;" vertex="1" connectable="0" parent="E2bT5KaukK148jxZRu-1-2">
          <mxGeometry x="-0.558" y="-3" relative="1" as="geometry">
            <mxPoint x="-89" y="13" as="offset" />
          </mxGeometry>
        </mxCell>
        <mxCell id="E2bT5KaukK148jxZRu-1-4" value="&lt;font style=&quot;font-size: 24px;&quot;&gt;google.com&lt;/font&gt;" style="swimlane;whiteSpace=wrap;html=1;" parent="1" vertex="1">
          <mxGeometry x="380" y="20" width="210" height="260" as="geometry" />
        </mxCell>
        <mxCell id="tentwsTDsZKtuL-YGYM0-1" value="Email Server&lt;br&gt;(*@gmail.com)&lt;br&gt;MTA: Sendmail" style="verticalLabelPosition=bottom;html=1;verticalAlign=top;strokeWidth=1;align=center;outlineConnect=0;dashed=0;outlineConnect=0;shape=mxgraph.aws3d.email_service;fillColor=#ECECEC;strokeColor=#5E5E5E;aspect=fixed;fontSize=24;" vertex="1" parent="E2bT5KaukK148jxZRu-1-4">
          <mxGeometry x="55.870000000000005" y="50" width="86.51" height="110" as="geometry" />
        </mxCell>
        <mxCell id="E2bT5KaukK148jxZRu-1-7" value="" style="shape=link;html=1;rounded=0;fontSize=24;labelBackgroundColor=none;exitX=0.5;exitY=1;exitDx=0;exitDy=0;entryX=0.75;entryY=0;entryDx=0;entryDy=0;" parent="1" source="E2bT5KaukK148jxZRu-1-4" target="RgH2JHaKkqkQcPpsvsZi-2" edge="1">
          <mxGeometry width="100" relative="1" as="geometry">
            <mxPoint x="360" y="277.19" as="sourcePoint" />
            <mxPoint x="554" y="470.19" as="targetPoint" />
          </mxGeometry>
        </mxCell>
        <mxCell id="FYgPK7Z1jiXgrqDPi6gt-2" value="&lt;span style=&quot;font-size: 24px;&quot;&gt;Sending email to user@icloud.com&lt;/span&gt;" style="whiteSpace=wrap;html=1;shape=mxgraph.basic.oval_callout" parent="1" vertex="1">
          <mxGeometry x="1470" y="170" width="260" height="150" as="geometry" />
        </mxCell>
        <mxCell id="tentwsTDsZKtuL-YGYM0-2" value="&lt;font style=&quot;font-size: 24px;&quot;&gt;icloud.com&lt;/font&gt;" style="swimlane;whiteSpace=wrap;html=1;" vertex="1" parent="1">
          <mxGeometry x="100" y="710" width="210" height="260" as="geometry" />
        </mxCell>
        <mxCell id="tentwsTDsZKtuL-YGYM0-3" value="Email Server&lt;br&gt;(*@icloud.com)&lt;br&gt;MTA: Postfix" style="verticalLabelPosition=bottom;html=1;verticalAlign=top;strokeWidth=1;align=center;outlineConnect=0;dashed=0;outlineConnect=0;shape=mxgraph.aws3d.email_service;fillColor=#ECECEC;strokeColor=#5E5E5E;aspect=fixed;fontSize=24;" vertex="1" parent="tentwsTDsZKtuL-YGYM0-2">
          <mxGeometry x="55.870000000000005" y="50" width="86.51" height="110" as="geometry" />
        </mxCell>
        <mxCell id="tentwsTDsZKtuL-YGYM0-16" value="" style="shape=flexArrow;endArrow=classic;html=1;rounded=0;strokeColor=#FF3333;fillColor=none;strokeWidth=7;fontSize=24;width=30;entryX=0.265;entryY=0;entryDx=0;entryDy=0;entryPerimeter=0;" edge="1" parent="tentwsTDsZKtuL-YGYM0-2" target="tentwsTDsZKtuL-YGYM0-19">
          <mxGeometry width="50" height="50" relative="1" as="geometry">
            <mxPoint x="150" y="100" as="sourcePoint" />
            <mxPoint x="150" y="80" as="targetPoint" />
          </mxGeometry>
        </mxCell>
        <mxCell id="tentwsTDsZKtuL-YGYM0-17" value="Mail Delivery Agent" style="edgeLabel;html=1;align=center;verticalAlign=middle;resizable=0;points=[];fontSize=24;" vertex="1" connectable="0" parent="tentwsTDsZKtuL-YGYM0-16">
          <mxGeometry x="-0.558" y="-3" relative="1" as="geometry">
            <mxPoint x="86" y="-44" as="offset" />
          </mxGeometry>
        </mxCell>
        <mxCell id="tentwsTDsZKtuL-YGYM0-4" value="" style="shape=link;html=1;rounded=0;fontSize=24;labelBackgroundColor=none;entryX=0.75;entryY=0;entryDx=0;entryDy=0;" edge="1" parent="1" source="RgH2JHaKkqkQcPpsvsZi-2">
          <mxGeometry width="100" relative="1" as="geometry">
            <mxPoint x="270" y="561.04" as="sourcePoint" />
            <mxPoint x="238" y="710.04" as="targetPoint" />
          </mxGeometry>
        </mxCell>
        <mxCell id="tentwsTDsZKtuL-YGYM0-7" value="User: neida@icloud.com&lt;br&gt;iPhone&lt;br style=&quot;font-size: 24px;&quot;&gt;MUA: Email app" style="image;html=1;image=img/lib/clip_art/telecommunication/iPhone_128x128.png;fontSize=24;" vertex="1" parent="1">
          <mxGeometry x="860" y="630" width="80" height="80" as="geometry" />
        </mxCell>
        <mxCell id="tentwsTDsZKtuL-YGYM0-18" value="" style="swimlane;whiteSpace=wrap;html=1;" vertex="1" parent="1">
          <mxGeometry x="312.38" y="710" width="210" height="260" as="geometry" />
        </mxCell>
        <mxCell id="tentwsTDsZKtuL-YGYM0-19" value="Mailbox:&lt;br&gt;neida@icloud.com" style="verticalLabelPosition=bottom;html=1;verticalAlign=top;strokeWidth=1;align=center;outlineConnect=0;dashed=0;outlineConnect=0;shape=mxgraph.aws3d.email_service;fillColor=#ECECEC;strokeColor=#5E5E5E;aspect=fixed;fontSize=24;" vertex="1" parent="tentwsTDsZKtuL-YGYM0-18">
          <mxGeometry x="89.27" y="150" width="31.46" height="40" as="geometry" />
        </mxCell>
        <mxCell id="tentwsTDsZKtuL-YGYM0-10" value="" style="shape=flexArrow;endArrow=classic;html=1;rounded=0;strokeColor=#FF3333;fillColor=none;strokeWidth=7;fontSize=24;width=30;" edge="1" parent="tentwsTDsZKtuL-YGYM0-18">
          <mxGeometry width="50" height="50" relative="1" as="geometry">
            <mxPoint x="137.62" y="169.5" as="sourcePoint" />
            <mxPoint x="447.62" y="50" as="targetPoint" />
          </mxGeometry>
        </mxCell>
        <mxCell id="tentwsTDsZKtuL-YGYM0-11" value="POP (Outgoing Email)" style="edgeLabel;html=1;align=center;verticalAlign=middle;resizable=0;points=[];fontSize=24;" vertex="1" connectable="0" parent="tentwsTDsZKtuL-YGYM0-10">
          <mxGeometry x="-0.558" y="-3" relative="1" as="geometry">
            <mxPoint x="171" y="-16" as="offset" />
          </mxGeometry>
        </mxCell>
        <mxCell id="tentwsTDsZKtuL-YGYM0-20" value="" style="shape=flexArrow;endArrow=classic;html=1;rounded=0;strokeColor=#FF3333;fillColor=none;strokeWidth=7;fontSize=24;width=30;entryX=0.218;entryY=0.004;entryDx=0;entryDy=0;entryPerimeter=0;exitX=0;exitY=1;exitDx=0;exitDy=0;" edge="1" parent="1" source="E2bT5KaukK148jxZRu-1-4" target="tentwsTDsZKtuL-YGYM0-2">
          <mxGeometry width="50" height="50" relative="1" as="geometry">
            <mxPoint x="820" y="450" as="sourcePoint" />
            <mxPoint x="30" y="310" as="targetPoint" />
          </mxGeometry>
        </mxCell>
        <mxCell id="tentwsTDsZKtuL-YGYM0-21" value="SMTP (Outgoing Email)" style="edgeLabel;html=1;align=center;verticalAlign=middle;resizable=0;points=[];fontSize=24;" vertex="1" connectable="0" parent="tentwsTDsZKtuL-YGYM0-20">
          <mxGeometry x="-0.558" y="-3" relative="1" as="geometry">
            <mxPoint x="-88" y="84" as="offset" />
          </mxGeometry>
        </mxCell>
        <mxCell id="tentwsTDsZKtuL-YGYM0-22" value="Email Relay" style="image;html=1;image=img/lib/clip_art/computers/Server_128x128.png;fontSize=24;" vertex="1" parent="1">
          <mxGeometry x="1070" y="400" width="190" height="90" as="geometry" />
        </mxCell>
        <mxCell id="tentwsTDsZKtuL-YGYM0-23" value="Email Archiver" style="image;html=1;image=img/lib/clip_art/computers/Server_128x128.png;fontSize=24;" vertex="1" parent="1">
          <mxGeometry x="1380" y="650" width="190" height="90" as="geometry" />
        </mxCell>
        <mxCell id="tentwsTDsZKtuL-YGYM0-24" value="" style="shape=flexArrow;endArrow=classic;html=1;rounded=0;strokeColor=#FF3333;fillColor=none;strokeWidth=7;fontSize=24;width=30;" edge="1" parent="1" source="tentwsTDsZKtuL-YGYM0-22">
          <mxGeometry width="50" height="50" relative="1" as="geometry">
            <mxPoint x="1056.1100000000001" y="70" as="sourcePoint" />
            <mxPoint x="579" y="90" as="targetPoint" />
          </mxGeometry>
        </mxCell>
        <mxCell id="tentwsTDsZKtuL-YGYM0-25" value="SMTP (Outgoing Email)" style="edgeLabel;html=1;align=center;verticalAlign=middle;resizable=0;points=[];fontSize=24;" vertex="1" connectable="0" parent="tentwsTDsZKtuL-YGYM0-24">
          <mxGeometry x="-0.558" y="-3" relative="1" as="geometry">
            <mxPoint x="-119" y="-69" as="offset" />
          </mxGeometry>
        </mxCell>
        <mxCell id="tentwsTDsZKtuL-YGYM0-26" value="" style="shape=flexArrow;endArrow=classic;html=1;rounded=0;strokeColor=#3399FF;fillColor=none;strokeWidth=7;fontSize=24;width=30;" edge="1" parent="1" target="tentwsTDsZKtuL-YGYM0-23">
          <mxGeometry width="50" height="50" relative="1" as="geometry">
            <mxPoint x="1250" y="490" as="sourcePoint" />
            <mxPoint x="1140" y="810" as="targetPoint" />
          </mxGeometry>
        </mxCell>
        <mxCell id="tentwsTDsZKtuL-YGYM0-27" value="Email Copied" style="edgeLabel;html=1;align=center;verticalAlign=middle;resizable=0;points=[];fontSize=24;" vertex="1" connectable="0" parent="tentwsTDsZKtuL-YGYM0-26">
          <mxGeometry x="-0.558" y="-3" relative="1" as="geometry">
            <mxPoint x="3" y="52" as="offset" />
          </mxGeometry>
        </mxCell>
      </root>
    </mxGraphModel>
  </diagram>
</mxfile>
